<svg id="svg" xmlns="http://www.w3.org/2000/svg" xmlns:xlink="http://www.w3.org/1999/xlink" width="400" height="397.94520547945206" viewBox="0, 0, 400,397.94520547945206" version="1.1"><g id="svgg"><path id="path0" d="M1.194 197.413 L 1.194 394.826 199.768 394.826 C 308.984 394.826,398.626 394.717,398.972 394.584 C 399.545 394.364,399.602 376.599,399.602 197.171 L 399.602 0.000 200.398 0.000 L 1.194 0.000 1.194 197.413 M144.882 138.209 C 144.887 216.845,144.983 225.817,145.816 225.706 C 145.955 225.687,190.935 225.672,245.771 225.672 L 345.473 225.672 345.473 284.378 L 345.473 343.085 200.000 343.085 L 54.527 343.085 54.527 197.413 L 54.527 51.741 99.701 51.741 L 144.876 51.741 144.882 138.209 M345.473 112.637 L 345.473 173.532 271.443 173.532 L 197.413 173.532 197.413 112.637 L 197.413 51.741 271.443 51.741 L 345.473 51.741 345.473 112.637 " stroke="none" fill="#7ca4d4" fill-rule="evenodd"></path><path id="path1" d="M127.032 342.985 C 167.019 343.041,232.572 343.041,272.704 342.985 C 312.836 342.929,280.119 342.883,200.000 342.883 C 119.881 342.883,87.045 342.929,127.032 342.985 " stroke="none" fill="#80a4d4" fill-rule="evenodd"></path></g></svg>